# xmcd
#
# Track frame offsets:
#	150
#	19435
#	38043
#	52755
#	66793
#	79103
#	96420
#	113638
#	125438
#	134958
#	148995
#
# Disc length: 2106 seconds
#
# Revision: 1
# Processed by: cddbd v1.5.2PL0 Copyright (c) Steve Scherf et al.
# Submitted via: audiograbber 1.83.01
#
DISCID=a108380b
DTITLE=Bobbie Gentry - Greatest Hits
DYEAR=1900
DGENRE=Oldies
TTITLE0=Ode To Billie Joe
TTITLE1=Fancy
TTITLE2=Okolona River Bottom Band
TTITLE3=Morning Glory
TTITLE4=Louisiana Man
TTITLE5=Sloow Cookin'
TTITLE6=Steal Away
TTITLE7=All I Have To Do Is Dream
TTITLE8=Let It Be Me
TTITLE9=Mississippi Delta
TTITLE10=Penduli Pendulum
EXTD=
EXTT0=
EXTT1=
EXTT2=
EXTT3=
EXTT4=
EXTT5=
EXTT6=
EXTT7=
EXTT8=
EXTT9=
EXTT10=
PLAYORDER=
